<svg width="29" height="29" viewBox="0 0 29 29" fill="none" xmlns="http://www.w3.org/2000/svg">
<path d="M22.8472 17.9228C22.2548 17.3059 21.5403 16.9762 20.783 16.9762C20.0319 16.9762 19.3112 17.2998 18.6944 17.9167L16.7646 19.8404C16.6058 19.7549 16.447 19.6755 16.2943 19.5961C16.0745 19.4862 15.8668 19.3823 15.6897 19.2724C13.882 18.1243 12.2392 16.6281 10.6636 14.6921C9.90024 13.7272 9.38725 12.915 9.01472 12.0905C9.5155 11.6325 9.97963 11.1561 10.4316 10.6981C10.6026 10.5271 10.7736 10.35 10.9445 10.179C12.227 8.89652 12.227 7.23541 10.9445 5.95292L9.27732 4.2857C9.088 4.09638 8.89258 3.90095 8.70937 3.70553C8.34294 3.32689 7.9582 2.93604 7.56124 2.56961C6.96885 1.98333 6.26044 1.67188 5.51537 1.67188C4.77031 1.67188 4.04968 1.98333 3.43898 2.56961C3.43287 2.57572 3.43287 2.57572 3.42676 2.58183L1.35036 4.67655C0.568658 5.45825 0.122843 6.41095 0.0251296 7.51633C-0.12144 9.29959 0.403767 10.9607 0.806833 12.0478C1.79618 14.7166 3.27408 17.1899 5.47873 19.8404C8.15362 23.0344 11.372 25.5566 15.0485 27.3337C16.4531 27.9994 18.328 28.7872 20.4227 28.9216C20.551 28.9277 20.6853 28.9338 20.8074 28.9338C22.2182 28.9338 23.4029 28.4269 24.3312 27.4192C24.3373 27.407 24.3495 27.4009 24.3556 27.3887C24.6732 27.004 25.0396 26.6559 25.4244 26.2833C25.687 26.0329 25.9557 25.7703 26.2183 25.4955C26.8229 24.8665 27.1405 24.1336 27.1405 23.3825C27.1405 22.6252 26.8168 21.8985 26.2 21.2877L22.8472 17.9228ZM25.0335 24.3535C25.0274 24.3535 25.0274 24.3596 25.0335 24.3535C24.7954 24.61 24.5511 24.8421 24.2885 25.0986C23.8915 25.4772 23.4884 25.8741 23.1098 26.32C22.493 26.9795 21.7663 27.291 20.8136 27.291C20.722 27.291 20.6242 27.291 20.5326 27.2849C18.7188 27.1688 17.0333 26.4604 15.7691 25.8558C12.3125 24.1825 9.27732 21.8068 6.75511 18.7961C4.6726 16.2861 3.28019 13.9654 2.35803 11.4737C1.79007 9.95305 1.58243 8.76828 1.67404 7.65069C1.73511 6.93616 2.00992 6.34378 2.51681 5.83689L4.59932 3.75438C4.89856 3.47346 5.21613 3.32078 5.52759 3.32078C5.91233 3.32078 6.22379 3.55285 6.41922 3.74828C6.42533 3.75438 6.43143 3.76049 6.43754 3.7666C6.81007 4.1147 7.16428 4.47502 7.53681 4.85976C7.72613 5.05519 7.92156 5.25061 8.11698 5.45214L9.78421 7.11937C10.4316 7.76672 10.4316 8.36521 9.78421 9.01256C9.6071 9.18966 9.43611 9.36677 9.259 9.53777C8.74601 10.063 8.25744 10.5515 7.72613 11.0279C7.71392 11.0401 7.7017 11.0462 7.69559 11.0584C7.17039 11.5836 7.2681 12.0966 7.37803 12.4447C7.38413 12.463 7.39024 12.4814 7.39635 12.4997C7.82995 13.5501 8.44066 14.5394 9.36893 15.7181L9.37504 15.7242C11.0606 17.8006 12.8377 19.419 14.7981 20.6587C15.0485 20.8175 15.305 20.9458 15.5493 21.0679C15.7691 21.1778 15.9768 21.2816 16.1539 21.3916C16.1783 21.4038 16.2027 21.4221 16.2272 21.4343C16.4348 21.5381 16.6302 21.587 16.8318 21.587C17.3386 21.587 17.6562 21.2694 17.76 21.1656L19.8486 19.077C20.0563 18.8694 20.3861 18.619 20.7708 18.619C21.1494 18.619 21.4609 18.8571 21.6502 19.0648C21.6563 19.0709 21.6563 19.0709 21.6624 19.077L25.0274 22.442C25.6565 23.0649 25.6565 23.7061 25.0335 24.3535Z" fill="url(#paint0_linear_1376_1872)"/>
<path d="M15.6161 6.88161C17.2162 7.15032 18.6697 7.90759 19.83 9.06794C20.9903 10.2283 21.7415 11.6818 22.0163 13.2818C22.0835 13.6849 22.4316 13.9658 22.8286 13.9658C22.8774 13.9658 22.9202 13.9597 22.969 13.9536C23.421 13.8803 23.7202 13.4528 23.6469 13.0009C23.3171 11.0649 22.4011 9.3 21.0026 7.90149C19.604 6.50297 17.8391 5.58691 15.9032 5.25713C15.4512 5.18385 15.0299 5.48309 14.9505 5.92891C14.8711 6.37472 15.1642 6.80832 15.6161 6.88161Z" fill="url(#paint1_linear_1376_1872)"/>
<path d="M28.8771 12.7641C28.3336 9.57622 26.8313 6.67537 24.5228 4.3669C22.2143 2.05843 19.3135 0.556097 16.1256 0.0125692C15.6798 -0.0668225 15.2584 0.23853 15.179 0.684346C15.1057 1.13627 15.405 1.55765 15.8569 1.63705C18.7028 2.1195 21.2983 3.46916 23.3625 5.52724C25.4266 7.59143 26.7702 10.1869 27.2527 13.0328C27.3198 13.4359 27.6679 13.7168 28.0649 13.7168C28.1138 13.7168 28.1565 13.7107 28.2054 13.7046C28.6512 13.6374 28.9565 13.2099 28.8771 12.7641Z" fill="url(#paint2_linear_1376_1872)"/>
<defs>
<linearGradient id="paint0_linear_1376_1872" x1="13.5702" y1="28.9338" x2="13.5702" y2="1.67187" gradientUnits="userSpaceOnUse">
<stop stop-color="#000E38"/>
<stop offset="1" stop-color="#3F186A"/>
</linearGradient>
<linearGradient id="paint1_linear_1376_1872" x1="19.2977" y1="13.9658" x2="19.2977" y2="5.24609" gradientUnits="userSpaceOnUse">
<stop stop-color="#000E38"/>
<stop offset="1" stop-color="#3F186A"/>
</linearGradient>
<linearGradient id="paint2_linear_1376_1872" x1="22.0288" y1="13.7168" x2="22.0288" y2="0" gradientUnits="userSpaceOnUse">
<stop stop-color="#000E38"/>
<stop offset="1" stop-color="#3F186A"/>
</linearGradient>
</defs>
</svg>
