<svg width="93" height="166" viewBox="0 0 93 166" fill="none" xmlns="http://www.w3.org/2000/svg">
<g clip-path="url(#clip0_1376_1471)">
<path fill-rule="evenodd" clip-rule="evenodd" d="M46.2811 11.9258C31.8956 26.3738 22.3205 46.6126 20.8421 69.4428C17.8286 116.204 49.9542 156.097 92.5988 158.551L92.2008 164.766C48.2598 162.231 15.1675 121.135 18.2721 72.9516C19.8528 48.4817 30.4627 26.9013 46.2924 11.9258H46.2811Z" fill="#ED923A" fill-opacity="0.3"/>
<path fill-rule="evenodd" clip-rule="evenodd" d="M65.2046 159.915C56.8917 162.632 51.9108 154.892 44.8716 153.666C37.8324 152.439 35.6263 156.67 30.9297 158.206C41.551 166.749 53.0026 167.242 65.1932 159.915H65.2046Z" fill="#ED923A" fill-opacity="0.3"/>
<path fill-rule="evenodd" clip-rule="evenodd" d="M50.2251 148.747C41.6279 149.573 38.1708 140.835 31.5296 138.049C24.8885 135.262 21.9772 138.943 17.1328 139.413C25.9574 150.203 37.0223 153.242 50.2251 148.747Z" fill="#ED923A" fill-opacity="0.3"/>
<path fill-rule="evenodd" clip-rule="evenodd" d="M34.3197 131.58C26.6323 130.926 24.7445 122.613 19.2633 119.081C13.7706 115.549 10.723 118.336 6.37891 117.969C12.7131 128.965 22.0721 133.449 34.331 131.58H34.3197Z" fill="#ED923A" fill-opacity="0.3"/>
<path fill-rule="evenodd" clip-rule="evenodd" d="M25.5621 114.966C18.5457 112.684 18.3069 104.508 13.8605 100.013C9.41404 95.5185 6.0707 97.4679 2.11328 96.1836C6.00247 107.834 13.8718 114.049 25.5735 114.955L25.5621 114.966Z" fill="#ED923A" fill-opacity="0.3"/>
<path fill-rule="evenodd" clip-rule="evenodd" d="M20.0373 97.9273C13.5098 94.3267 14.5788 86.2083 10.9284 80.9221C7.27802 75.636 3.6845 76.9202 0 74.8906C1.95597 87.1485 8.68814 94.7854 20.0373 97.9273Z" fill="#ED923A" fill-opacity="0.3"/>
<path fill-rule="evenodd" clip-rule="evenodd" d="M18.4053 79.3478C12.7875 74.2681 15.4372 66.5625 12.9468 60.508C10.4563 54.4536 6.70358 54.855 3.53081 51.9883C2.99633 64.4641 8.01134 73.5686 18.4053 79.3478Z" fill="#ED923A" fill-opacity="0.3"/>
<path fill-rule="evenodd" clip-rule="evenodd" d="M20.5322 58.5845C16.8704 52.5071 21.0325 46.4986 20.3161 40.4671C19.611 34.4241 16.2563 33.7017 14.1866 30.2617C10.7182 41.0634 12.8902 50.5119 20.5322 58.5845Z" fill="#ED923A" fill-opacity="0.3"/>
<path fill-rule="evenodd" clip-rule="evenodd" d="M24.658 40.9807C23.1 34.6281 28.1719 30.7524 29.1157 25.3401C30.0596 19.9278 27.3986 18.2766 26.523 14.6875C20.8143 22.9091 20.2457 31.6812 24.6693 40.9692L24.658 40.9807Z" fill="#ED923A" fill-opacity="0.3"/>
<path fill-rule="evenodd" clip-rule="evenodd" d="M33.3761 26.6246C32.8303 21.7971 36.8787 19.5267 38.0613 15.6739C39.244 11.8211 37.4586 10.3075 37.1516 7.58984C32.2389 12.9792 30.9994 19.3318 33.3648 26.6246H33.3761Z" fill="#ED923A" fill-opacity="0.3"/>
<path fill-rule="evenodd" clip-rule="evenodd" d="M42.0039 14.9394C42.8341 10.7425 46.7801 10.1348 48.7702 7.30253C50.7717 4.47025 49.7027 2.64705 50.169 0.273438C44.6877 3.19745 41.9926 8.11667 42.0039 14.9394Z" fill="#ED923A" fill-opacity="0.3"/>
<path fill-rule="evenodd" clip-rule="evenodd" d="M76.7379 154.01C71.5864 147.899 75.0662 140.663 73.1671 134.15C71.268 127.625 67.4471 127.35 64.5358 123.91C62.705 136.306 66.833 146.339 76.7379 154.022V154.01Z" fill="#ED923A" fill-opacity="0.3"/>
<path fill-rule="evenodd" clip-rule="evenodd" d="M61.7659 146.705C56.7509 140.639 60.3103 133.403 58.5363 126.913C56.7622 120.423 52.9754 120.159 50.1438 116.742C48.131 129.103 52.077 139.091 61.7659 146.705Z" fill="#ED923A" fill-opacity="0.3"/>
<path fill-rule="evenodd" clip-rule="evenodd" d="M45.0471 132.886C41.8061 126.293 46.4913 120.64 46.2411 114.425C45.9909 108.199 42.6476 107.086 40.8167 103.371C36.4613 113.978 37.9396 123.828 45.0471 132.898V132.886Z" fill="#ED923A" fill-opacity="0.3"/>
<path fill-rule="evenodd" clip-rule="evenodd" d="M32.309 115.686C30.535 108.933 35.8798 104.678 36.8009 98.8762C37.7106 93.0741 34.8449 91.3655 33.8328 87.5586C27.8739 96.4568 27.4191 105.859 32.309 115.686Z" fill="#ED923A" fill-opacity="0.3"/>
<path fill-rule="evenodd" clip-rule="evenodd" d="M24.9398 94.6682C24.2461 88.4532 29.4772 85.5292 31.001 80.5641C32.5362 75.599 30.2391 73.6612 29.8525 70.1523C23.5069 77.0782 21.9035 85.2769 24.9398 94.6682Z" fill="#ED923A" fill-opacity="0.3"/>
<path fill-rule="evenodd" clip-rule="evenodd" d="M23.6506 72.8821C24.3556 67.2979 29.473 66.0594 31.8383 62.1264C34.2037 58.1933 32.6344 55.9229 33.021 52.7695C26.0955 57.2071 23.0024 63.9381 23.6506 72.8821Z" fill="#ED923A" fill-opacity="0.3"/>
<path fill-rule="evenodd" clip-rule="evenodd" d="M26.7852 52.3913C28.5478 47.7817 33.1421 47.9996 35.9737 45.2247C38.7939 42.4382 37.941 40.099 38.9304 37.4961C32.13 39.5716 28.1043 44.5711 26.7852 52.3913Z" fill="#ED923A" fill-opacity="0.3"/>
<path fill-rule="evenodd" clip-rule="evenodd" d="M33.0664 36.7071C35.2384 33.0149 39.1731 33.9895 42.0161 32.0631C44.8477 30.1367 44.4383 27.958 45.6665 25.8711C39.5143 26.5018 35.3294 30.1482 33.0664 36.7071Z" fill="#ED923A" fill-opacity="0.3"/>
<path fill-rule="evenodd" clip-rule="evenodd" d="M40.9766 22.7368C43.0349 19.9389 46.1508 21.1085 48.5957 19.8128C51.0407 18.5171 50.8929 16.7053 52.0528 15.1229C47.015 15.0427 43.3305 17.6112 40.9766 22.7253V22.7368Z" fill="#ED923A" fill-opacity="0.3"/>
<path fill-rule="evenodd" clip-rule="evenodd" d="M50.3828 9.78085C52.3502 6.44404 55.8982 7.32698 58.4569 5.58404C61.0155 3.85256 60.6516 1.88029 61.7547 -0.0117188C56.1939 0.55015 52.4184 3.85256 50.3828 9.76939V9.78085Z" fill="#ED923A" fill-opacity="0.3"/>
</g>
<defs>
<clipPath id="clip0_1376_1471">
<rect width="92.59" height="165.052" fill="white"/>
</clipPath>
</defs>
</svg>
