<svg width="30" height="22" viewBox="0 0 30 22" fill="none" xmlns="http://www.w3.org/2000/svg">
<path d="M23.8054 0H5.9089C2.65064 0 0 2.65913 0 5.92709V15.9032C0 19.1718 2.65064 21.8303 5.9089 21.8303H23.8054C27.0636 21.8303 29.7143 19.1712 29.7143 15.9032V5.92709C29.7143 2.65913 27.0636 0 23.8054 0ZM28.5015 15.9038C28.5015 18.5035 26.3948 20.6181 23.8054 20.6181H5.9089C3.31951 20.6181 1.21283 18.5029 1.21283 15.9038V5.92709C1.21283 3.328 3.31951 1.21283 5.9089 1.21283H23.8054C26.3948 1.21283 28.5015 3.328 28.5015 5.92709V15.9038Z" fill="url(#paint0_linear_1376_1893)"/>
<path d="M20.2286 10.6954L11.8267 5.77434C11.6399 5.66519 11.4077 5.66337 11.2191 5.77131C11.0305 5.87925 10.9141 6.07998 10.9141 6.29768V16.1392C10.9141 16.3563 11.0305 16.5576 11.2185 16.6655C11.3119 16.7189 11.4162 16.7456 11.5205 16.7456C11.6266 16.7456 11.7321 16.7177 11.8267 16.6625L20.2286 11.7427C20.4141 11.6341 20.5288 11.4346 20.5288 11.2193C20.5288 11.0041 20.4148 10.8039 20.2286 10.6954ZM12.1269 15.081V7.35526L18.7222 11.2187L12.1269 15.081Z" fill="url(#paint1_linear_1376_1893)"/>
<defs>
<linearGradient id="paint0_linear_1376_1893" x1="14.8571" y1="21.8303" x2="14.8571" y2="0" gradientUnits="userSpaceOnUse">
<stop stop-color="#000E38"/>
<stop offset="1" stop-color="#3F186A"/>
</linearGradient>
<linearGradient id="paint1_linear_1376_1893" x1="15.7214" y1="16.7456" x2="15.7214" y2="5.69141" gradientUnits="userSpaceOnUse">
<stop stop-color="#000E38"/>
<stop offset="1" stop-color="#3F186A"/>
</linearGradient>
</defs>
</svg>
